<svg xmlns="http://www.w3.org/2000/svg" id="canvas" viewBox="243.529 260.439 1268.847 421.091"><path d="M 250.53,396.33 C 252.13 395.83, 252.98 394.76, 254.79 391.84 C 256.60 388.91, 257.11 386.73, 259.56 381.71 C 262.01 376.70, 263.69 373.45, 267.03 366.77 C 270.37 360.09, 272.34 356.06, 276.27 348.32 C 280.19 340.59, 282.52 336.10, 286.65 328.10 C 290.78 320.09, 293.05 315.71, 296.92 308.29 C 300.78 300.87, 302.65 297.10, 305.98 291.00 C 309.31 284.89, 310.91 282.00, 313.58 277.77 C 316.24 273.54, 318.25 272.26, 319.31 269.84 C 320.37 267.43, 319.49 265.93, 318.88 265.72 C 318.27 265.51, 316.97 265.58, 316.25 268.80 C 315.53 272.02, 316.14 274.82, 315.29 281.84 C 314.44 288.85, 313.69 293.63, 311.98 303.89 C 310.27 314.15, 308.99 320.66, 306.74 333.14 C 304.50 345.63, 302.97 353.01, 300.77 366.32 C 298.58 379.63, 297.35 386.96, 295.76 399.70 C 294.17 412.43, 293.49 418.92, 292.83 429.97 C 292.18 441.02, 292.13 446.23, 292.49 454.95 C 292.84 463.67, 293.23 467.37, 294.58 473.57 C 295.93 479.78, 296.72 482.22, 299.24 485.98 C 301.76 489.75, 303.63 491.49, 307.19 492.41 C 310.74 493.33, 313.26 492.85, 317.02 490.59 C 320.78 488.33, 322.27 486.37, 325.99 481.11 C 329.70 475.85, 331.44 472.50, 335.58 464.29 C 339.72 456.07, 342.05 450.89, 346.70 440.03 C 351.35 429.17, 353.91 422.57, 358.83 409.98 C 363.75 397.39, 366.45 390.06, 371.29 377.10 C 376.14 364.14, 378.57 357.18, 383.05 345.16 C 387.53 333.13, 389.85 327.08, 393.70 316.97 C 397.55 306.85, 399.31 302.12, 402.31 294.57 C 405.30 287.02, 407.02 283.91, 408.67 279.22 C 410.32 274.54, 411.11 272.63, 410.56 271.15 C 410.02 269.67, 407.41 269.14, 405.94 271.84 C 404.47 274.54, 404.78 277.39, 403.22 284.65 C 401.66 291.91, 400.59 296.93, 398.13 308.16 C 395.67 319.39, 394.07 326.58, 390.92 340.81 C 387.77 355.05, 385.87 363.37, 382.38 379.33 C 378.88 395.30, 376.92 404.10, 373.43 420.63 C 369.94 437.16, 368.16 445.91, 364.92 461.97 C 361.68 478.04, 360.09 486.21, 357.23 500.96 C 354.37 515.70, 353.04 522.94, 350.61 535.70 C 348.19 548.46, 347.10 554.49, 345.10 564.77 C 343.09 575.04, 342.20 579.62, 340.59 587.09 C 338.98 594.55, 338.22 597.59, 337.04 602.11 C 335.87 606.64, 334.97 607.59, 334.71 609.71 C 334.45 611.83, 335.35 612.10, 335.74 612.73 C 336.13 613.36, 336.50 612.76, 336.65 612.87 C 336.80 612.97, 336.22 613.09, 336.47 613.24 C 336.72 613.39, 337.07 614.03, 337.89 613.62 C 338.71 613.20, 339.79 613.27, 340.58 611.16 C 341.36 609.05, 341.13 607.76, 341.81 603.07 C 342.49 598.38, 342.79 595.28, 343.98 587.72 C 345.16 580.15, 345.96 575.57, 347.73 565.25 C 349.50 554.93, 350.54 548.89, 352.84 536.11 C 355.13 523.33, 356.43 516.09, 359.22 501.34 C 362.01 486.59, 363.58 478.42, 366.81 462.35 C 370.03 446.29, 371.81 437.55, 375.34 421.04 C 378.86 404.52, 380.83 395.73, 384.44 379.79 C 388.05 363.86, 389.97 355.55, 393.37 341.38 C 396.78 327.21, 398.57 320.07, 401.46 308.96 C 404.35 297.84, 405.76 292.93, 407.82 285.81 C 409.87 278.68, 411.69 276.48, 411.74 273.35 C 411.79 270.21, 409.58 269.28, 408.08 270.13 C 406.58 270.98, 406.02 272.93, 404.23 277.59 C 402.44 282.24, 401.74 285.71, 399.12 293.40 C 396.50 301.08, 394.81 305.83, 391.13 316.01 C 387.46 326.19, 385.16 332.26, 380.74 344.30 C 376.32 356.35, 373.89 363.31, 369.03 376.25 C 364.16 389.19, 361.43 396.51, 356.41 409.02 C 351.38 421.53, 348.76 428.11, 343.90 438.79 C 339.04 449.47, 336.53 454.60, 332.11 462.43 C 327.69 470.26, 325.50 473.42, 321.80 477.94 C 318.11 482.46, 316.25 483.41, 313.63 485.02 C 311.02 486.64, 310.74 486.45, 308.74 486.02 C 306.74 485.59, 305.67 485.56, 303.63 482.88 C 301.59 480.19, 300.13 478.21, 298.54 472.59 C 296.95 466.97, 296.28 463.26, 295.69 454.77 C 295.09 446.27, 295.03 441.07, 295.55 430.12 C 296.06 419.16, 296.71 412.68, 298.26 400.00 C 299.81 387.33, 301.03 380.01, 303.30 366.74 C 305.56 353.47, 307.12 346.11, 309.58 333.68 C 312.05 321.25, 313.46 314.78, 315.62 304.58 C 317.79 294.39, 318.86 289.75, 320.40 282.70 C 321.93 275.66, 323.44 273.15, 323.28 269.36 C 323.12 265.57, 321.58 264.46, 319.61 263.74 C 317.63 263.03, 315.54 263.52, 313.40 265.81 C 311.25 268.09, 311.12 270.53, 308.88 275.18 C 306.64 279.82, 305.27 282.76, 302.20 289.04 C 299.12 295.31, 297.30 299.08, 293.52 306.55 C 289.75 314.01, 287.49 318.39, 283.31 326.36 C 279.14 334.33, 276.77 338.81, 272.64 346.42 C 268.51 354.03, 266.39 357.97, 262.66 364.42 C 258.93 370.86, 256.94 373.90, 254.01 378.66 C 251.08 383.42, 249.47 385.06, 248.02 388.20 C 246.57 391.35, 246.25 392.75, 246.75 394.38 C 247.26 396.01, 248.92 396.84, 250.53 396.33" style="stroke: white; fill: white; stroke-width: 20;"/><path d="M 402.87,471.38 C 403.49 472.76, 404.28 473.94, 406.59 474.36 C 408.90 474.79, 410.71 474.75, 414.41 473.51 C 418.11 472.27, 420.39 470.98, 425.09 468.15 C 429.78 465.32, 432.59 463.56, 437.89 459.36 C 443.18 455.17, 446.24 452.56, 451.56 447.18 C 456.88 441.80, 459.72 438.54, 464.50 432.46 C 469.28 426.38, 471.59 422.98, 475.44 416.78 C 479.29 410.59, 481.11 407.27, 483.77 401.49 C 486.43 395.70, 487.55 392.85, 488.75 387.86 C 489.96 382.86, 490.60 380.41, 489.79 376.52 C 488.98 372.63, 487.72 370.25, 484.68 368.41 C 481.65 366.57, 478.92 366.15, 474.63 367.33 C 470.35 368.51, 468.13 370.03, 463.26 374.33 C 458.40 378.63, 455.63 381.46, 450.31 388.82 C 444.98 396.17, 441.83 401.02, 436.63 411.11 C 431.43 421.19, 428.52 427.63, 424.32 439.26 C 420.11 450.89, 418.04 457.78, 415.61 469.28 C 413.18 480.77, 412.42 486.93, 412.17 496.74 C 411.92 506.55, 412.35 511.04, 414.37 518.33 C 416.38 525.61, 418.09 528.71, 422.24 533.18 C 426.38 537.65, 429.38 539.16, 435.10 540.68 C 440.82 542.19, 444.32 541.89, 450.84 540.75 C 457.36 539.60, 460.96 538.23, 467.70 534.96 C 474.45 531.69, 478.45 528.84, 484.58 524.39 C 490.71 519.94, 493.85 516.86, 498.34 512.70 C 502.84 508.53, 505.91 505.98, 507.06 503.57 C 508.22 501.17, 506.49 499.52, 504.14 500.67 C 501.78 501.82, 499.73 505.33, 495.26 509.31 C 490.80 513.30, 487.74 516.30, 481.82 520.60 C 475.91 524.90, 472.05 527.71, 465.68 530.80 C 459.32 533.90, 455.90 535.01, 450.01 536.09 C 444.12 537.17, 441.18 537.33, 436.22 536.18 C 431.26 535.03, 428.92 534.10, 425.22 530.33 C 421.53 526.57, 419.75 524.07, 417.74 517.36 C 415.74 510.65, 415.08 506.30, 415.21 496.80 C 415.33 487.30, 416.01 481.17, 418.37 469.86 C 420.73 458.54, 422.78 451.69, 427.01 440.24 C 431.24 428.80, 434.19 422.41, 439.49 412.62 C 444.80 402.82, 448.09 398.09, 453.53 391.27 C 458.97 384.44, 462.09 381.96, 466.69 378.51 C 471.28 375.06, 473.63 374.86, 476.52 374.01 C 479.41 373.17, 479.86 373.54, 481.15 374.29 C 482.44 375.05, 482.59 375.33, 482.98 377.81 C 483.38 380.29, 483.86 382.34, 483.13 386.69 C 482.41 391.04, 481.63 394.00, 479.34 399.56 C 477.05 405.11, 475.34 408.44, 471.69 414.48 C 468.04 420.53, 465.77 423.89, 461.09 429.77 C 456.41 435.64, 453.58 438.81, 448.29 443.85 C 443.01 448.89, 439.93 451.37, 434.65 454.97 C 429.37 458.56, 426.49 459.98, 421.90 461.82 C 417.32 463.65, 414.90 463.41, 411.73 464.13 C 408.56 464.86, 407.70 464.78, 406.05 465.45 C 404.40 466.11, 404.10 466.28, 403.47 467.46 C 402.83 468.65, 402.24 470.00, 402.87 471.38" style="stroke: white; fill: white; stroke-width: 20;"/><path d="M 582.41,402.00 C 582.72 400.24, 582.26 398.70, 580.72 396.68 C 579.18 394.65, 577.87 393.09, 574.72 391.87 C 571.58 390.64, 569.03 389.99, 564.99 390.57 C 560.95 391.14, 558.86 391.93, 554.54 394.73 C 550.21 397.54, 548.02 399.23, 543.38 404.61 C 538.74 409.99, 536.07 413.42, 531.33 421.63 C 526.60 429.84, 523.83 435.34, 519.72 445.67 C 515.61 456.00, 513.56 462.60, 510.77 473.29 C 507.98 483.99, 506.88 490.00, 505.79 499.16 C 504.70 508.32, 504.61 512.57, 505.32 519.11 C 506.03 525.64, 506.79 528.15, 509.35 531.81 C 511.91 535.48, 514.24 536.89, 518.12 537.41 C 522.00 537.94, 524.48 537.12, 528.75 534.44 C 533.03 531.76, 535.13 529.74, 539.51 524.01 C 543.89 518.28, 546.10 514.68, 550.66 505.78 C 555.22 496.88, 557.62 491.28, 562.31 479.50 C 566.99 467.73, 569.48 460.55, 574.09 446.89 C 578.71 433.24, 581.11 425.29, 585.39 411.23 C 589.67 397.17, 591.87 389.50, 595.50 376.58 C 599.13 363.67, 600.78 357.21, 603.53 346.67 C 606.28 336.13, 607.45 331.31, 609.24 323.90 C 611.04 316.49, 612.32 313.62, 612.50 309.61 C 612.68 305.60, 611.64 304.21, 610.15 303.85 C 608.67 303.49, 606.70 304.00, 605.09 307.81 C 603.48 311.61, 603.48 314.77, 602.12 322.88 C 600.76 331.00, 599.92 336.61, 598.28 348.39 C 596.65 360.18, 595.62 367.81, 593.96 381.82 C 592.29 395.84, 591.27 404.17, 589.94 418.49 C 588.60 432.80, 588.02 440.53, 587.28 453.41 C 586.55 466.28, 586.34 472.48, 586.26 482.88 C 586.17 493.27, 586.29 497.82, 586.86 505.40 C 587.43 512.99, 587.74 515.98, 589.11 520.81 C 590.47 525.64, 591.60 527.49, 593.66 529.53 C 595.72 531.58, 598.02 531.21, 599.41 531.01 C 600.81 530.82, 600.94 529.60, 600.62 528.56 C 600.30 527.52, 599.22 527.67, 597.83 525.83 C 596.43 523.99, 595.15 523.52, 593.64 519.36 C 592.14 515.21, 591.23 512.36, 590.30 505.06 C 589.38 497.76, 589.14 493.17, 589.02 482.87 C 588.90 472.57, 589.06 466.37, 589.72 453.54 C 590.38 440.71, 590.95 432.99, 592.31 418.71 C 593.68 404.44, 594.71 396.11, 596.55 382.15 C 598.40 368.19, 599.54 360.57, 601.54 348.90 C 603.55 337.22, 604.74 331.66, 606.58 323.78 C 608.42 315.89, 610.08 313.29, 610.73 309.49 C 611.39 305.69, 610.49 304.90, 609.87 304.80 C 609.26 304.70, 608.47 305.31, 607.67 308.98 C 606.86 312.66, 607.18 315.77, 605.83 323.18 C 604.48 330.58, 603.44 335.46, 600.92 346.02 C 598.40 356.57, 596.77 363.04, 593.22 375.95 C 589.68 388.86, 587.49 396.53, 583.20 410.56 C 578.92 424.59, 576.50 432.53, 571.79 446.10 C 567.09 459.68, 564.54 466.84, 559.69 478.44 C 554.83 490.03, 552.29 495.58, 547.51 504.09 C 542.74 512.61, 540.21 515.96, 535.83 521.02 C 531.45 526.08, 529.05 527.31, 525.63 529.38 C 522.21 531.44, 521.15 531.47, 518.73 531.36 C 516.30 531.25, 515.38 531.40, 513.50 528.84 C 511.63 526.29, 510.20 524.46, 509.34 518.59 C 508.47 512.73, 508.26 508.43, 509.16 499.53 C 510.06 490.63, 511.10 484.61, 513.83 474.09 C 516.56 463.57, 518.63 457.01, 522.79 446.92 C 526.96 436.82, 529.82 431.41, 534.66 423.62 C 539.50 415.83, 542.38 412.59, 547.00 407.97 C 551.62 403.36, 554.13 402.20, 557.78 400.56 C 561.43 398.93, 562.82 399.41, 565.25 399.80 C 567.68 400.19, 568.11 401.51, 569.94 402.52 C 571.76 403.53, 572.52 404.26, 574.36 404.86 C 576.21 405.46, 577.55 406.09, 579.16 405.52 C 580.77 404.95, 582.09 403.77, 582.41 402.00" style="stroke: white; fill: white; stroke-width: 20;"/><path d="M 689.88,398.44 C 690.22 396.69, 689.78 395.13, 688.24 393.23 C 686.69 391.33, 685.31 389.88, 682.16 388.93 C 679.01 387.99, 676.38 387.42, 672.48 388.50 C 668.57 389.59, 666.64 390.76, 662.64 394.37 C 658.65 397.98, 656.66 400.22, 652.50 406.56 C 648.34 412.91, 645.91 417.01, 641.83 426.11 C 637.75 435.20, 635.38 441.22, 632.10 452.03 C 628.82 462.85, 627.29 469.53, 625.44 480.17 C 623.60 490.80, 622.98 496.48, 622.89 505.22 C 622.80 513.96, 623.24 517.84, 625.02 523.88 C 626.79 529.92, 628.24 532.35, 631.78 535.42 C 635.32 538.49, 638.08 539.35, 642.72 539.24 C 647.35 539.12, 650.13 538.03, 654.96 534.85 C 659.80 531.67, 662.28 529.27, 666.89 523.33 C 671.50 517.38, 673.86 513.46, 678.00 505.11 C 682.14 496.76, 684.24 491.45, 687.59 481.57 C 690.93 471.69, 692.48 465.73, 694.73 455.70 C 696.99 445.67, 697.78 440.17, 698.86 431.42 C 699.93 422.67, 700.04 418.54, 700.12 411.96 C 700.20 405.37, 700.03 402.76, 699.25 398.48 C 698.48 394.19, 697.64 392.60, 696.24 390.52 C 694.84 388.44, 693.44 388.24, 692.25 388.08 C 691.05 387.92, 690.50 388.69, 690.28 389.71 C 690.07 390.72, 690.46 391.15, 691.16 393.14 C 691.86 395.13, 692.81 395.87, 693.76 399.65 C 694.72 403.43, 695.60 405.76, 695.92 412.03 C 696.24 418.31, 696.23 422.43, 695.35 431.02 C 694.47 439.61, 693.72 445.10, 691.52 454.99 C 689.33 464.87, 687.77 470.79, 684.38 480.46 C 680.99 490.14, 678.80 495.38, 674.59 503.37 C 670.37 511.36, 667.82 515.05, 663.30 520.43 C 658.78 525.80, 656.16 527.62, 651.99 530.24 C 647.82 532.87, 645.84 533.28, 642.45 533.54 C 639.05 533.81, 637.71 533.75, 635.01 531.58 C 632.30 529.40, 630.66 527.94, 628.93 522.67 C 627.19 517.40, 626.41 513.62, 626.33 505.22 C 626.26 496.83, 626.79 491.15, 628.56 480.70 C 630.34 470.26, 631.87 463.59, 635.20 452.99 C 638.53 442.39, 640.99 436.43, 645.22 427.69 C 649.46 418.95, 652.09 414.94, 656.37 409.29 C 660.66 403.64, 663.12 401.78, 666.65 399.44 C 670.18 397.10, 671.69 397.57, 674.03 397.60 C 676.37 397.62, 676.73 398.79, 678.35 399.56 C 679.96 400.32, 680.47 400.95, 682.11 401.43 C 683.75 401.91, 685.00 402.56, 686.56 401.97 C 688.11 401.37, 689.55 400.18, 689.88 398.44" style="stroke: white; fill: white; stroke-width: 20;"/><path d="M 734.75,384.27 C 733.58 385.29, 733.22 386.09, 732.79 389.62 C 732.36 393.15, 732.84 395.48, 732.60 401.93 C 732.35 408.37, 732.13 412.76, 731.55 421.86 C 730.98 430.97, 730.57 436.92, 729.73 447.45 C 728.89 457.98, 728.35 464.35, 727.36 474.49 C 726.37 484.64, 725.71 489.88, 724.78 498.16 C 723.85 506.44, 723.27 510.36, 722.72 515.90 C 722.16 521.44, 721.30 523.50, 722.02 525.86 C 722.74 528.21, 724.91 528.82, 726.31 527.70 C 727.71 526.59, 728.13 525.15, 729.03 520.28 C 729.92 515.41, 729.59 511.68, 730.80 503.35 C 732.02 495.02, 732.70 489.23, 735.11 478.63 C 737.52 468.04, 739.11 461.23, 742.85 450.40 C 746.59 439.56, 749.12 433.47, 753.80 424.45 C 758.48 415.44, 761.40 411.19, 766.25 405.32 C 771.10 399.45, 773.89 397.52, 778.06 395.12 C 782.23 392.71, 783.96 392.75, 787.09 393.29 C 790.22 393.84, 791.26 394.43, 793.70 397.84 C 796.14 401.25, 797.45 403.77, 799.28 410.34 C 801.10 416.91, 801.85 421.57, 802.83 430.68 C 803.81 439.79, 803.96 445.72, 804.17 455.90 C 804.39 466.07, 804.07 472.02, 803.91 481.56 C 803.76 491.09, 803.42 495.99, 803.39 503.58 C 803.36 511.17, 803.27 514.39, 803.76 519.50 C 804.25 524.61, 804.57 526.47, 805.85 529.11 C 807.12 531.76, 808.63 532.04, 810.12 532.72 C 811.62 533.40, 812.62 533.00, 813.32 532.51 C 814.02 532.03, 813.75 530.90, 813.62 530.30 C 813.50 529.70, 813.01 530.29, 812.70 529.52 C 812.38 528.74, 812.85 528.59, 812.05 526.44 C 811.26 524.29, 809.67 523.35, 808.72 518.76 C 807.77 514.18, 807.57 510.96, 807.31 503.52 C 807.04 496.09, 807.33 491.14, 807.41 481.60 C 807.49 472.06, 807.83 466.10, 807.70 455.84 C 807.57 445.58, 807.55 439.64, 806.77 430.31 C 805.99 420.97, 805.57 416.28, 803.81 409.15 C 802.04 402.03, 801.12 398.89, 797.93 394.70 C 794.75 390.52, 792.32 388.90, 787.90 388.24 C 783.48 387.58, 780.73 388.43, 775.85 391.40 C 770.97 394.37, 768.45 396.77, 763.49 403.10 C 758.52 409.42, 755.73 413.77, 751.02 423.02 C 746.30 432.28, 743.79 438.42, 739.91 449.37 C 736.04 460.33, 734.41 467.17, 731.65 477.79 C 728.89 488.42, 727.90 494.20, 726.13 502.51 C 724.37 510.82, 723.42 514.44, 722.84 519.34 C 722.25 524.24, 722.34 525.67, 723.20 527.01 C 724.06 528.34, 726.26 528.16, 727.12 526.01 C 727.98 523.86, 727.23 521.76, 727.49 516.26 C 727.75 510.76, 727.80 506.80, 728.44 498.51 C 729.08 490.22, 729.73 484.96, 730.69 474.81 C 731.65 464.66, 732.22 458.28, 733.23 447.76 C 734.25 437.24, 734.79 431.30, 735.77 422.22 C 736.75 413.15, 737.32 408.80, 738.14 402.38 C 738.96 395.97, 739.76 393.71, 739.86 390.14 C 739.95 386.57, 739.63 385.70, 738.61 384.53 C 737.59 383.35, 735.91 383.26, 734.75 384.27" style="stroke: white; fill: white; stroke-width: 20;"/><path d="M 896.70,418.94 C 898.11 417.75, 898.77 416.21, 898.99 413.56 C 899.22 410.91, 899.26 408.82, 897.82 405.70 C 896.39 402.58, 894.99 400.15, 891.84 397.98 C 888.68 395.80, 886.23 394.74, 882.07 394.84 C 877.92 394.94, 875.61 395.69, 871.06 398.49 C 866.51 401.30, 864.07 403.33, 859.32 408.87 C 854.56 414.40, 851.86 418.14, 847.30 426.18 C 842.75 434.22, 840.20 439.63, 836.52 449.05 C 832.85 458.47, 831.01 464.24, 828.93 473.27 C 826.84 482.31, 826.27 487.08, 826.10 494.23 C 825.92 501.37, 826.16 504.49, 828.06 509.01 C 829.95 513.52, 831.86 515.47, 835.58 516.80 C 839.30 518.13, 842.27 517.59, 846.67 515.66 C 851.08 513.73, 853.37 511.75, 857.62 507.14 C 861.86 502.54, 863.86 499.40, 867.91 492.65 C 871.96 485.90, 874.04 481.48, 877.87 473.40 C 881.71 465.31, 883.75 460.30, 887.07 452.22 C 890.40 444.14, 891.94 439.50, 894.48 432.99 C 897.03 426.49, 898.75 423.44, 899.79 419.71 C 900.84 415.99, 900.30 414.69, 899.71 414.38 C 899.13 414.06, 897.42 414.68, 896.88 418.14 C 896.33 421.59, 897.01 424.55, 896.97 431.64 C 896.94 438.74, 896.94 443.49, 896.70 453.61 C 896.46 463.73, 896.29 470.02, 895.77 482.25 C 895.26 494.48, 894.87 501.54, 894.12 514.76 C 893.37 527.98, 892.96 535.17, 892.01 548.35 C 891.07 561.52, 890.60 568.39, 889.42 580.63 C 888.24 592.87, 887.62 598.92, 886.10 609.55 C 884.59 620.18, 883.78 625.23, 881.84 633.77 C 879.90 642.32, 878.83 646.15, 876.40 652.28 C 873.97 658.42, 872.47 660.78, 869.70 664.44 C 866.93 668.09, 865.49 669.04, 862.54 670.55 C 859.60 672.05, 858.37 672.12, 854.98 671.96 C 851.58 671.80, 849.59 671.37, 845.56 669.73 C 841.52 668.10, 839.12 666.88, 834.81 663.79 C 830.51 660.70, 828.01 658.65, 824.02 654.29 C 820.02 649.93, 817.97 647.25, 814.84 641.99 C 811.70 636.72, 810.17 633.86, 808.35 627.96 C 806.54 622.06, 806.24 618.28, 805.75 612.50 C 805.26 606.72, 805.74 603.63, 805.90 599.07 C 806.07 594.52, 807.22 591.71, 806.57 589.72 C 805.92 587.73, 803.88 587.32, 802.65 589.12 C 801.41 590.92, 800.85 593.94, 800.41 598.72 C 799.96 603.49, 799.78 606.86, 800.42 613.00 C 801.06 619.15, 801.58 623.15, 803.60 629.45 C 805.61 635.76, 807.22 638.84, 810.49 644.53 C 813.76 650.21, 815.82 653.07, 819.97 657.89 C 824.12 662.70, 826.62 665.01, 831.24 668.58 C 835.86 672.16, 838.34 673.76, 843.06 675.75 C 847.79 677.74, 850.38 678.54, 854.85 678.53 C 859.32 678.52, 861.67 677.96, 865.43 675.70 C 869.20 673.45, 870.76 671.66, 873.68 667.25 C 876.61 662.83, 877.80 660.19, 880.05 653.63 C 882.31 647.07, 883.20 643.18, 884.95 634.44 C 886.71 625.70, 887.43 620.64, 888.82 609.92 C 890.22 599.21, 890.79 593.15, 891.92 580.87 C 893.05 568.59, 893.51 561.71, 894.46 548.52 C 895.41 535.33, 895.83 528.14, 896.68 514.91 C 897.53 501.69, 897.95 494.63, 898.71 482.40 C 899.47 470.18, 899.79 463.89, 900.48 453.79 C 901.16 443.68, 901.57 438.98, 902.13 431.86 C 902.69 424.73, 903.80 421.92, 903.27 418.15 C 902.73 414.38, 901.21 413.11, 899.46 413.02 C 897.71 412.92, 896.38 413.98, 894.53 417.66 C 892.69 421.35, 892.46 424.84, 890.24 431.45 C 888.01 438.06, 886.59 442.69, 883.39 450.73 C 880.19 458.77, 878.11 463.75, 874.24 471.64 C 870.36 479.54, 868.14 483.89, 864.02 490.22 C 859.89 496.55, 857.60 499.33, 853.61 503.29 C 849.62 507.24, 847.32 508.41, 844.08 509.99 C 840.83 511.57, 839.66 511.76, 837.37 511.18 C 835.08 510.59, 834.06 510.46, 832.62 507.08 C 831.19 503.70, 830.23 500.87, 830.20 494.27 C 830.17 487.67, 830.54 482.85, 832.48 474.07 C 834.41 465.29, 836.22 459.55, 839.88 450.38 C 843.54 441.21, 846.16 435.85, 850.79 428.22 C 855.41 420.59, 858.32 417.04, 863.00 412.23 C 867.68 407.41, 870.45 405.95, 874.20 404.16 C 877.94 402.38, 879.64 402.96, 881.74 403.31 C 883.85 403.66, 883.81 404.42, 884.72 405.90 C 885.64 407.38, 885.54 408.75, 886.32 410.70 C 887.10 412.66, 887.48 413.93, 888.60 415.69 C 889.73 417.45, 890.34 418.84, 891.96 419.49 C 893.58 420.14, 895.29 420.12, 896.70 418.94" style="stroke: white; fill: white; stroke-width: 20;"/><path d="M 1079.86,291.51 C 1078.61 292.18, 1077.62 292.37, 1077.01 295.59 C 1076.40 298.80, 1076.97 300.89, 1076.81 307.60 C 1076.64 314.31, 1076.58 318.77, 1076.19 329.13 C 1075.80 339.49, 1075.54 346.37, 1074.86 359.41 C 1074.18 372.45, 1073.62 380.36, 1072.78 394.34 C 1071.95 408.32, 1071.40 416.15, 1070.69 429.32 C 1069.98 442.49, 1069.56 449.19, 1069.23 460.20 C 1068.90 471.20, 1068.80 476.22, 1069.05 484.34 C 1069.30 492.45, 1069.50 495.52, 1070.49 500.75 C 1071.48 505.98, 1071.71 508.17, 1073.99 510.50 C 1076.26 512.83, 1078.95 513.50, 1081.87 512.39 C 1084.79 511.28, 1086.11 509.55, 1088.57 504.96 C 1091.03 500.38, 1091.72 497.19, 1094.18 489.45 C 1096.65 481.71, 1097.98 476.57, 1100.88 466.25 C 1103.78 455.92, 1105.50 449.25, 1108.68 437.83 C 1111.86 426.41, 1113.72 419.66, 1116.79 409.14 C 1119.86 398.62, 1121.49 393.16, 1124.03 385.23 C 1126.58 377.30, 1128.28 373.62, 1129.50 369.50 C 1130.71 365.39, 1130.06 364.23, 1130.11 364.65 C 1130.17 365.07, 1129.49 366.42, 1129.75 371.60 C 1130.01 376.78, 1130.69 381.21, 1131.40 390.55 C 1132.10 399.89, 1132.50 406.52, 1133.28 418.28 C 1134.07 430.04, 1134.37 437.35, 1135.32 449.34 C 1136.27 461.33, 1136.79 467.83, 1138.01 478.23 C 1139.24 488.63, 1139.90 493.54, 1141.43 501.35 C 1142.96 509.16, 1143.70 512.27, 1145.66 517.30 C 1147.61 522.34, 1148.33 524.48, 1151.20 526.54 C 1154.06 528.60, 1156.84 529.03, 1159.98 527.60 C 1163.12 526.18, 1164.35 524.29, 1166.90 519.42 C 1169.45 514.55, 1170.26 511.58, 1172.73 503.26 C 1175.20 494.95, 1176.49 489.61, 1179.25 477.84 C 1182.02 466.08, 1183.65 458.47, 1186.56 444.45 C 1189.47 430.43, 1191.05 422.14, 1193.81 407.76 C 1196.57 393.39, 1197.96 385.51, 1200.36 372.57 C 1202.75 359.62, 1203.87 353.44, 1205.78 343.04 C 1207.68 332.63, 1208.53 328.07, 1209.88 320.55 C 1211.23 313.03, 1211.87 310.05, 1212.53 305.44 C 1213.19 300.84, 1213.31 299.71, 1213.17 297.54 C 1213.03 295.37, 1212.44 295.21, 1211.81 294.60 C 1211.18 293.99, 1210.72 294.00, 1210.03 294.51 C 1209.35 295.03, 1208.87 295.10, 1208.40 297.18 C 1207.93 299.25, 1208.07 300.32, 1207.69 304.89 C 1207.31 309.47, 1207.40 312.51, 1206.48 320.04 C 1205.57 327.58, 1204.80 332.16, 1203.10 342.58 C 1201.41 352.99, 1200.32 359.19, 1198.00 372.14 C 1195.68 385.09, 1194.29 392.96, 1191.51 407.32 C 1188.72 421.67, 1187.11 429.96, 1184.06 443.92 C 1181.01 457.87, 1179.30 465.49, 1176.24 477.09 C 1173.17 488.70, 1171.62 494.04, 1168.75 501.95 C 1165.87 509.86, 1164.22 512.61, 1161.87 516.65 C 1159.52 520.68, 1158.39 521.07, 1156.99 522.13 C 1155.59 523.18, 1156.28 523.24, 1154.86 521.91 C 1153.44 520.59, 1151.90 519.76, 1149.90 515.50 C 1147.90 511.24, 1146.65 508.14, 1144.87 500.61 C 1143.09 493.08, 1142.33 488.16, 1141.01 477.86 C 1139.68 467.57, 1139.13 461.07, 1138.26 449.12 C 1137.38 437.17, 1137.16 429.86, 1136.62 418.09 C 1136.08 406.33, 1135.96 399.71, 1135.57 390.31 C 1135.18 380.90, 1135.57 376.55, 1134.68 371.07 C 1133.78 365.58, 1132.96 363.53, 1131.09 362.88 C 1129.22 362.24, 1127.41 363.59, 1125.32 367.85 C 1123.22 372.11, 1122.90 376.10, 1120.60 384.19 C 1118.31 392.28, 1116.82 397.74, 1113.84 408.30 C 1110.87 418.86, 1108.99 425.60, 1105.72 436.99 C 1102.44 448.38, 1100.65 455.05, 1097.47 465.23 C 1094.29 475.42, 1092.67 480.54, 1089.80 487.90 C 1086.94 495.27, 1085.26 498.13, 1083.14 502.04 C 1081.03 505.95, 1080.19 506.47, 1079.21 507.47 C 1078.23 508.47, 1079.10 508.59, 1078.24 507.05 C 1077.37 505.51, 1076.08 504.36, 1074.90 499.78 C 1073.73 495.20, 1072.96 492.07, 1072.37 484.16 C 1071.78 476.26, 1071.79 471.20, 1071.94 460.26 C 1072.10 449.31, 1072.49 442.60, 1073.16 429.45 C 1073.82 416.30, 1074.37 408.47, 1075.29 394.50 C 1076.20 380.52, 1076.80 372.62, 1077.72 359.59 C 1078.65 346.56, 1079.03 339.67, 1079.90 329.36 C 1080.78 319.04, 1081.23 314.58, 1082.10 308.01 C 1082.97 301.45, 1084.04 299.69, 1084.27 296.54 C 1084.50 293.39, 1084.12 293.25, 1083.24 292.24 C 1082.35 291.24, 1081.10 290.84, 1079.86 291.51" style="stroke: white; fill: white; stroke-width: 20;"/><path d="M 1234.89,338.61 C 1233.80 339.84, 1233.83 341.00, 1233.48 344.91 C 1233.13 348.83, 1233.35 351.23, 1233.15 358.18 C 1232.95 365.13, 1232.83 369.78, 1232.48 379.67 C 1232.13 389.56, 1231.77 395.73, 1231.40 407.62 C 1231.03 419.51, 1230.77 426.61, 1230.64 439.13 C 1230.51 451.65, 1230.34 458.49, 1230.75 470.22 C 1231.16 481.96, 1231.49 487.89, 1232.69 497.79 C 1233.89 507.69, 1234.72 512.26, 1236.74 519.74 C 1238.76 527.21, 1239.94 530.16, 1242.82 535.15 C 1245.69 540.14, 1247.34 542.06, 1251.11 544.69 C 1254.89 547.32, 1257.37 548.26, 1261.71 548.30 C 1266.05 548.33, 1268.54 547.54, 1272.80 544.86 C 1277.06 542.18, 1279.01 540.21, 1283.02 534.90 C 1287.03 529.59, 1288.95 526.34, 1292.84 518.30 C 1296.72 510.27, 1298.68 505.36, 1302.44 494.72 C 1306.21 484.09, 1308.04 477.59, 1311.67 465.13 C 1315.29 452.67, 1317.23 445.38, 1320.57 432.43 C 1323.91 419.48, 1325.60 412.43, 1328.38 400.38 C 1331.15 388.33, 1332.42 382.32, 1334.45 372.18 C 1336.48 362.03, 1337.28 357.36, 1338.55 349.64 C 1339.81 341.92, 1340.14 338.80, 1340.77 333.59 C 1341.39 328.38, 1341.96 326.55, 1341.66 323.59 C 1341.35 320.64, 1340.13 319.99, 1339.22 318.82 C 1338.32 317.64, 1337.81 317.76, 1337.11 317.70 C 1336.42 317.65, 1336.14 318.07, 1335.76 318.53 C 1335.38 318.99, 1335.46 318.87, 1335.24 320.00 C 1335.01 321.13, 1334.48 321.52, 1334.65 324.19 C 1334.82 326.86, 1336.00 328.35, 1336.09 333.35 C 1336.18 338.34, 1335.99 341.50, 1335.10 349.16 C 1334.22 356.82, 1333.50 361.51, 1331.65 371.64 C 1329.81 381.77, 1328.58 387.78, 1325.88 399.81 C 1323.17 411.84, 1321.49 418.89, 1318.13 431.80 C 1314.77 444.71, 1312.80 451.99, 1309.07 464.36 C 1305.35 476.73, 1303.44 483.21, 1299.50 493.64 C 1295.55 504.08, 1293.43 508.91, 1289.36 516.53 C 1285.28 524.16, 1283.06 527.15, 1279.12 531.78 C 1275.18 536.41, 1273.13 537.63, 1269.64 539.66 C 1266.15 541.70, 1264.77 541.86, 1261.67 541.94 C 1258.58 542.02, 1257.17 541.86, 1254.15 540.04 C 1251.14 538.22, 1249.39 537.10, 1246.59 532.84 C 1243.78 528.58, 1242.33 525.84, 1240.14 518.75 C 1237.96 511.67, 1236.99 507.13, 1235.66 497.41 C 1234.33 487.68, 1233.94 481.77, 1233.48 470.12 C 1233.03 458.47, 1233.20 451.64, 1233.39 439.17 C 1233.59 426.69, 1233.88 419.60, 1234.46 407.74 C 1235.04 395.88, 1235.53 389.73, 1236.28 379.88 C 1237.03 370.04, 1237.48 365.43, 1238.21 358.52 C 1238.93 351.61, 1239.76 349.27, 1239.90 345.31 C 1240.05 341.36, 1239.93 340.09, 1238.93 338.75 C 1237.93 337.41, 1235.98 337.38, 1234.89 338.61" style="stroke: white; fill: white; stroke-width: 20;"/><path d="M 1335.91,464.04 C 1335.13 465.05, 1335.03 465.50, 1334.95 466.77 C 1334.86 468.04, 1334.72 468.60, 1335.49 470.39 C 1336.26 472.18, 1337.48 472.68, 1338.80 475.72 C 1340.11 478.77, 1341.14 480.97, 1342.07 485.62 C 1343.00 490.27, 1343.23 493.27, 1343.44 498.99 C 1343.65 504.72, 1343.46 508.15, 1343.12 514.24 C 1342.77 520.33, 1342.30 523.61, 1341.73 529.43 C 1341.16 535.25, 1340.79 538.22, 1340.26 543.35 C 1339.73 548.49, 1339.49 550.93, 1339.08 555.11 C 1338.66 559.30, 1338.58 561.22, 1338.19 564.27 C 1337.80 567.32, 1337.56 568.38, 1337.13 570.36 C 1336.70 572.33, 1336.36 573.03, 1336.04 574.15 C 1335.72 575.26, 1335.62 575.48, 1335.54 575.93 C 1335.46 576.39, 1335.39 576.23, 1335.64 576.43 C 1335.88 576.63, 1336.56 576.71, 1336.77 576.95 C 1336.99 577.18, 1337.24 577.03, 1336.72 577.62 C 1336.21 578.21, 1334.53 579.12, 1334.19 579.91 C 1333.85 580.70, 1334.30 581.14, 1335.03 581.57 C 1335.77 582.00, 1336.70 582.23, 1337.86 582.07 C 1339.02 581.92, 1339.68 581.66, 1340.82 580.79 C 1341.96 579.91, 1342.55 579.41, 1343.57 577.71 C 1344.58 576.01, 1345.34 574.86, 1345.90 572.26 C 1346.47 569.67, 1346.41 568.11, 1346.38 564.74 C 1346.36 561.37, 1345.84 559.58, 1345.78 555.40 C 1345.72 551.21, 1345.80 548.90, 1346.08 543.81 C 1346.35 538.72, 1346.66 535.78, 1347.16 529.93 C 1347.67 524.09, 1348.14 520.80, 1348.61 514.61 C 1349.09 508.42, 1349.37 504.94, 1349.53 498.97 C 1349.70 493.00, 1349.64 489.97, 1349.43 484.77 C 1349.22 479.58, 1349.15 476.97, 1348.50 473.00 C 1347.85 469.03, 1347.47 467.19, 1346.17 464.93 C 1344.86 462.66, 1343.44 462.34, 1341.98 461.69 C 1340.51 461.04, 1340.04 461.22, 1338.83 461.69 C 1337.61 462.16, 1336.68 463.02, 1335.91 464.04" style="stroke: white; fill: white; stroke-width: 20;"/><path d="M 1403.81,516.92 C 1405.17 518.06, 1406.73 518.21, 1408.89 517.98 C 1411.06 517.75, 1412.38 517.09, 1414.63 515.77 C 1416.89 514.44, 1418.23 513.39, 1420.18 511.36 C 1422.13 509.33, 1423.41 508.12, 1424.38 505.60 C 1425.34 503.08, 1425.79 500.66, 1424.99 498.75 C 1424.19 496.85, 1422.35 496.00, 1420.40 496.08 C 1418.44 496.16, 1416.97 497.85, 1415.23 499.17 C 1413.49 500.49, 1413.19 501.37, 1411.71 502.66 C 1410.24 503.96, 1409.32 504.50, 1407.86 505.66 C 1406.41 506.83, 1405.60 507.16, 1404.44 508.48 C 1403.29 509.81, 1402.23 510.59, 1402.10 512.28 C 1401.98 513.96, 1402.45 515.78, 1403.81 516.92" style="stroke: white; fill: white; stroke-width: 20;"/><path d="M 1423.76,462.30 C 1425.32 461.28, 1426.22 459.11, 1425.29 457.59 C 1424.35 456.08, 1421.53 454.74, 1419.08 454.72 C 1416.63 454.70, 1414.62 454.62, 1413.02 457.49 C 1411.42 460.36, 1412.25 463.20, 1411.09 469.07 C 1409.93 474.94, 1408.96 478.94, 1407.22 486.83 C 1405.48 494.72, 1404.28 499.63, 1402.41 508.52 C 1400.54 517.41, 1399.40 522.52, 1397.87 531.30 C 1396.33 540.09, 1395.51 544.63, 1394.73 552.44 C 1393.95 560.25, 1393.87 563.97, 1393.97 570.37 C 1394.07 576.78, 1394.41 579.57, 1395.24 584.46 C 1396.07 589.34, 1396.48 591.35, 1398.12 594.81 C 1399.76 598.26, 1400.94 599.83, 1403.44 601.74 C 1405.94 603.64, 1408.01 604.15, 1410.61 604.34 C 1413.21 604.53, 1414.87 603.77, 1416.44 602.68 C 1418.01 601.58, 1418.55 600.25, 1418.46 598.86 C 1418.37 597.46, 1417.04 596.34, 1415.99 595.69 C 1414.94 595.04, 1414.16 595.56, 1413.22 595.61 C 1412.28 595.66, 1412.28 596.05, 1411.29 595.95 C 1410.30 595.84, 1409.65 596.01, 1408.27 595.10 C 1406.89 594.18, 1405.93 593.76, 1404.40 591.39 C 1402.87 589.02, 1401.82 587.50, 1400.63 583.26 C 1399.44 579.02, 1398.85 576.29, 1398.45 570.19 C 1398.05 564.10, 1398.00 560.44, 1398.63 552.79 C 1399.25 545.14, 1400.02 540.63, 1401.56 531.95 C 1403.09 523.27, 1404.23 518.17, 1406.31 509.39 C 1408.39 500.61, 1409.73 495.75, 1411.97 488.05 C 1414.21 480.34, 1415.48 476.31, 1417.51 470.88 C 1419.55 465.46, 1421.68 463.54, 1422.15 460.92 C 1422.61 458.29, 1421.17 458.04, 1419.83 457.75 C 1418.49 457.45, 1415.92 458.44, 1415.46 459.43 C 1414.99 460.43, 1415.83 462.13, 1417.50 462.70 C 1419.16 463.28, 1422.21 463.32, 1423.76 462.30" style="stroke: white; fill: white; stroke-width: 20;"/><path d="M 1425.95,476.99 C 1427.41 475.68, 1428.16 473.37, 1427.22 472.00 C 1426.27 470.63, 1423.42 469.86, 1421.24 470.13 C 1419.05 470.40, 1416.91 470.58, 1416.29 473.34 C 1415.67 476.10, 1417.56 478.40, 1418.14 483.93 C 1418.71 489.47, 1418.94 493.50, 1419.15 501.03 C 1419.36 508.55, 1419.26 513.26, 1419.17 521.57 C 1419.08 529.88, 1418.77 534.56, 1418.71 542.56 C 1418.66 550.57, 1418.66 554.69, 1418.90 561.59 C 1419.14 568.50, 1419.39 571.64, 1419.92 577.09 C 1420.45 582.54, 1420.71 584.85, 1421.55 588.86 C 1422.39 592.86, 1422.50 594.86, 1424.12 597.13 C 1425.73 599.40, 1427.28 600.02, 1429.61 600.21 C 1431.94 600.41, 1434.01 600.13, 1435.78 598.11 C 1437.56 596.09, 1437.58 594.42, 1438.48 590.12 C 1439.37 585.82, 1439.18 582.96, 1440.27 576.60 C 1441.36 570.25, 1442.13 566.10, 1443.92 558.34 C 1445.70 550.58, 1446.83 545.84, 1449.20 537.79 C 1451.56 529.74, 1452.93 525.27, 1455.77 518.09 C 1458.60 510.92, 1460.26 507.41, 1463.37 501.90 C 1466.48 496.39, 1468.21 494.03, 1471.32 490.56 C 1474.43 487.10, 1476.20 486.01, 1478.92 484.56 C 1481.65 483.10, 1482.85 483.24, 1484.94 483.30 C 1487.03 483.37, 1487.60 483.46, 1489.37 484.89 C 1491.14 486.32, 1492.23 487.15, 1493.79 490.43 C 1495.35 493.71, 1496.27 496.15, 1497.17 501.28 C 1498.07 506.42, 1498.30 509.77, 1498.29 516.11 C 1498.28 522.45, 1497.88 526.30, 1497.14 532.97 C 1496.40 539.63, 1495.70 543.28, 1494.59 549.45 C 1493.49 555.61, 1492.78 558.67, 1491.60 563.79 C 1490.43 568.92, 1489.68 571.28, 1488.72 575.07 C 1487.76 578.86, 1487.10 580.38, 1486.81 582.74 C 1486.52 585.10, 1486.83 585.72, 1487.28 586.87 C 1487.73 588.02, 1488.45 588.19, 1489.07 588.48 C 1489.69 588.78, 1490.32 588.36, 1490.36 588.35 C 1490.40 588.34, 1489.22 588.28, 1489.27 588.43 C 1489.32 588.57, 1489.86 589.16, 1490.62 589.07 C 1491.38 588.98, 1492.22 588.97, 1493.08 587.97 C 1493.94 586.98, 1494.42 586.43, 1494.92 584.10 C 1495.42 581.77, 1495.13 580.18, 1495.57 576.33 C 1496.02 572.48, 1496.33 570.06, 1497.13 564.85 C 1497.94 559.65, 1498.59 556.55, 1499.59 550.29 C 1500.59 544.03, 1501.30 540.36, 1502.13 533.55 C 1502.95 526.73, 1503.47 522.85, 1503.72 516.22 C 1503.97 509.59, 1504.02 506.16, 1503.38 500.41 C 1502.75 494.65, 1502.34 491.84, 1500.54 487.46 C 1498.73 483.08, 1497.47 480.88, 1494.35 478.50 C 1491.22 476.11, 1488.67 475.44, 1484.91 475.53 C 1481.15 475.62, 1479.07 476.62, 1475.54 478.95 C 1472.00 481.28, 1470.46 483.01, 1467.23 487.17 C 1464.01 491.33, 1462.48 493.88, 1459.42 499.76 C 1456.37 505.65, 1454.78 509.24, 1451.94 516.60 C 1449.10 523.97, 1447.74 528.47, 1445.23 536.59 C 1442.72 544.71, 1441.55 549.45, 1439.39 557.19 C 1437.23 564.92, 1436.21 569.08, 1434.43 575.27 C 1432.65 581.46, 1431.62 584.25, 1430.48 588.14 C 1429.35 592.02, 1428.79 593.05, 1428.77 594.69 C 1428.76 596.33, 1429.99 596.55, 1430.42 596.35 C 1430.85 596.15, 1431.40 595.51, 1430.91 593.67 C 1430.43 591.82, 1429.18 590.57, 1427.99 587.11 C 1426.81 583.66, 1425.95 581.53, 1425.01 576.38 C 1424.07 571.24, 1423.72 568.14, 1423.29 561.38 C 1422.85 554.62, 1422.79 550.53, 1422.83 542.59 C 1422.88 534.65, 1423.18 529.98, 1423.50 521.68 C 1423.83 513.38, 1424.12 508.66, 1424.47 501.07 C 1424.81 493.49, 1424.94 489.38, 1425.22 483.75 C 1425.51 478.12, 1426.73 475.50, 1425.88 472.93 C 1425.04 470.36, 1422.90 470.54, 1421.00 470.90 C 1419.10 471.26, 1416.59 473.19, 1416.38 474.72 C 1416.16 476.25, 1418.02 478.10, 1419.93 478.55 C 1421.85 479.01, 1424.49 478.30, 1425.95 476.99" style="stroke: white; fill: white; stroke-width: 20;"/><path d="M 1507.74,492.02 C 1509.27 491.23, 1509.80 489.76, 1508.90 488.86 C 1508.00 487.96, 1505.26 487.24, 1503.23 487.53 C 1501.20 487.82, 1499.47 487.78, 1498.74 490.31 C 1498.01 492.85, 1499.56 495.09, 1499.59 500.20 C 1499.63 505.31, 1499.50 508.83, 1498.92 515.87 C 1498.34 522.92, 1497.73 527.42, 1496.69 535.41 C 1495.65 543.41, 1494.79 548.03, 1493.71 555.86 C 1492.63 563.70, 1492.07 567.77, 1491.29 574.58 C 1490.52 581.40, 1490.19 584.55, 1489.82 589.94 C 1489.45 595.33, 1489.11 597.63, 1489.45 601.53 C 1489.80 605.44, 1490.02 607.45, 1491.55 609.47 C 1493.08 611.49, 1494.92 611.72, 1497.10 611.64 C 1499.28 611.56, 1500.83 610.46, 1502.46 609.07 C 1504.09 607.69, 1505.29 606.42, 1505.24 604.72 C 1505.20 603.01, 1503.96 601.47, 1502.24 600.55 C 1500.52 599.64, 1498.46 599.69, 1496.64 600.14 C 1494.81 600.59, 1493.61 601.70, 1493.13 602.81 C 1492.64 603.93, 1493.55 604.70, 1494.20 605.72 C 1494.85 606.74, 1495.70 607.71, 1496.38 607.92 C 1497.06 608.14, 1497.60 608.23, 1497.60 606.79 C 1497.60 605.35, 1496.87 604.07, 1496.36 600.72 C 1495.86 597.38, 1495.19 595.20, 1495.07 590.07 C 1494.95 584.93, 1495.18 581.75, 1495.75 575.03 C 1496.32 568.30, 1496.84 564.24, 1497.92 556.44 C 1499.00 548.65, 1499.86 544.04, 1501.16 536.07 C 1502.46 528.10, 1503.21 523.61, 1504.42 516.57 C 1505.63 509.54, 1506.23 506.03, 1507.21 500.90 C 1508.18 495.76, 1509.74 493.54, 1509.30 490.89 C 1508.86 488.25, 1506.99 487.91, 1505.00 487.66 C 1503.01 487.41, 1500.09 488.60, 1499.35 489.63 C 1498.60 490.66, 1499.59 492.32, 1501.27 492.80 C 1502.94 493.28, 1506.22 492.81, 1507.74 492.02" style="stroke: white; fill: white; stroke-width: 20;"/></svg>